<?xml version="1.0" standalone="no"?><!DOCTYPE svg PUBLIC "-//W3C//DTD SVG 1.1//EN" "http://www.w3.org/Graphics/SVG/1.1/DTD/svg11.dtd"><svg t="1699872947270" class="icon" viewBox="0 0 1024 1024" version="1.1" xmlns="http://www.w3.org/2000/svg" p-id="6290" xmlns:xlink="http://www.w3.org/1999/xlink" width="48" height="48"><path d="M525.778113 152.142994a55.464356 55.464356 0 0 0-21.460439 26.537561c-4.309154 14.079413-3.626516 29.097454 1.706595 42.835548 4.437148 14.420732 13.26878 27.006875 25.172285 36.094497 6.186409 4.309154 13.226116 7.039707 20.692471 7.935669a37.630432 37.630432 0 0 0 21.716428-3.711845 42.664889 42.664889 0 0 0 18.047248-19.625849c3.626516-8.447648 5.67443-17.407275 5.887755-26.452232a89.425607 89.425607 0 0 0-4.309154-34.21724 56.786967 56.786967 0 0 0-22.143077-29.438774 44.286155 44.286155 0 0 0-17.492605-6.570393 36.734469 36.734469 0 0 0-18.516561 2.047915 50.472564 50.472564 0 0 0-9.386276 5.119787" fill="#FFFFFF" p-id="6291"></path><path d="M849.391296 615.654348a479.212033 479.212033 0 0 0-27.006875-93.820091 268.7888 268.7888 0 0 0-33.491938-63.35736c-14.079413-18.729886-31.913337-34.515895-45.651431-53.459106-7.253031-9.898254-13.396775-20.905796-21.03379-30.548061a1441.561268 1441.561268 0 0 1-8.959627-19.071205c-9.087621-19.881838-17.36461-40.190325-28.158827-59.048206-1.706596-2.986542-3.498521-5.93042-5.205116-8.746303-1.365276-18.175243-3.285196-36.350485-4.309154-54.525728a515.647848 515.647848 0 0 0-9.215616-108.880796 181.027124 181.027124 0 0 0-21.588434-48.637974 166.478397 166.478397 0 0 0-42.23824-45.480771A162.681222 162.681222 0 0 0 508.968147 0.042665a146.852548 146.852548 0 0 0-70.951711 16.340652c-23.03904 12.628807-41.683597 31.998667-53.373776 55.549686a186.530895 186.530895 0 0 0-17.065956 75.516853c-0.853298 25.641598 1.493271 51.069872 2.559894 76.754136 0.981292 26.537561 0.426649 53.245781 2.559893 79.783342 0.682638 8.532978 1.706596 17.065956 1.706596 25.684263 0 4.309154-0.213324 8.660972-0.341319 12.842132l-0.341319 0.895962c-11.562185 19.625849-24.404316 38.611725-38.398401 56.658973-9.727595 12.372818-19.497854 24.660306-29.396108 36.819799a219.297529 219.297529 0 0 0-32.339986 47.699346 342.769718 342.769718 0 0 0-14.079413 46.07808l-0.341319 1.279947a358.555727 358.555727 0 0 1-22.697721 57.170951 748.768801 748.768801 0 0 1-15.35936 30.121411l-6.101079 11.476856c-3.83984 6.911712-7.253031 14.079413-10.239574 21.332444-1.706596 4.437148-3.071872 8.959627-3.83984 13.652764-1.493271 9.855589-0.853298 19.839173 1.791926 29.396109 0.554644 2.389234 1.365276 4.778468 2.133244 7.167701 2.559893 7.039707 5.461106 13.951419 9.002292 20.521812 1.578601 3.071872 3.285196 6.015749 4.863797 9.087621l1.493271 2.133245c1.578601 2.858548 3.285196 5.717095 4.991792 8.447648l0.213324 0.341319c1.962585 3.157202 4.095829 6.229074 6.143744 9.300946l0.34132 0.426649c2.133244 2.986542 4.309154 6.058414 6.613057 8.959626 8.362318 32.851965 23.807008 63.400025 45.054123 89.724262-3.285196 5.802425-6.229074 11.51952-9.51427 17.151285a262.687721 262.687721 0 0 0-28.500146 53.84309 64.850631 64.850631 0 0 0-2.175909 30.206741 42.664889 42.664889 0 0 0 14.762051 26.110912c5.333111 4.095829 11.476855 6.911712 17.919254 8.276989 6.485063 1.365276 13.226116 2.047915 19.881838 1.706595a324.72247 324.72247 0 0 0 74.236907-14.634057c14.591392-3.83984 29.097454-7.253031 43.859506-10.239573 15.35936-3.498521 30.88938-5.67443 46.547393-6.357068 3.83984 0.127995 7.722345-0.08533 11.51952-0.341319 10.666222 1.151952 21.332444 1.621266 32.083997 1.151952l4.0105-0.213325c2.687888 0.341319 5.546436 0.426649 8.404983 0.682638a581.778426 581.778426 0 0 1 104.998291 15.44469 370.97121 370.97121 0 0 0 76.455481 14.634057c6.826382 0.341319 13.6101-0.213324 20.436482-1.578601a46.504729 46.504729 0 0 0 18.473897-8.404983c7.978334-6.613058 13.226116-15.786009 14.932711-26.025582a64.850631 64.850631 0 0 0-2.175909-30.206742 255.43469 255.43469 0 0 0-29.012125-53.715095c-4.053164-6.911712-7.893004-14.079413-11.988833-20.991125 17.577934-19.625849 33.150619-41.214283 46.206074-64.167993 7.935669 0.426649 15.786009-0.426649 23.38036-2.943878 19.881838-6.698388 37.118453-19.625849 49.192617-36.905128 3.626516-5.119787 6.442398-10.794217 8.148993-16.809967a108.368818 108.368818 0 0 0 15.700679-40.104995 202.700887 202.700887 0 0 0-1.706595-71.165035h-0.255989z" fill="#020204" p-id="6292"></path><path d="M412.673492 293.961085a39.465022 39.465022 0 0 0-7.253031 15.44469c-1.279947 5.546436-2.047915 11.34886-2.133244 17.065955 0.298654 11.43419-0.597308 22.911045-2.858548 34.131912a105.936919 105.936919 0 0 1-17.705929 32.126661c-13.311445 16.724636-23.764343 35.411858-30.88938 55.464356-3.626516 12.372818-4.906462 25.300279-3.541185 38.22774a408.473647 408.473647 0 0 0-35.539853 64.423982 354.886546 354.886546 0 0 0-28.969459 107.174201 273.481938 273.481938 0 0 0 19.327194 133.754427c12.799467 30.420066 32.339986 57.68293 57.128287 79.612683a187.256198 187.256198 0 0 0 209.27128 26.110912 324.55181 324.55181 0 0 0 71.079705-56.232323c13.52477-12.244823 25.556268-26.025582 36.094496-40.958294 17.620599-30.54806 27.945502-64.850631 30.121412-100.049164a325.917087 325.917087 0 0 0-19.1992-180.771135 197.410441 197.410441 0 0 0-36.137161-51.795175 286.708054 286.708054 0 0 0-22.911046-77.223449c-8.191659-17.577934-18.047248-34.387901-25.684263-52.477814-3.071872-7.338361-5.75976-14.847381-9.172951-22.015082a68.519812 68.519812 0 0 0-13.396775-19.625849 54.312404 54.312404 0 0 0-21.03379-12.159494 86.993709 86.993709 0 0 0-24.062998-4.095829c-16.340652-0.767968-32.851965 1.279947-48.936627 0.682638-13.055456-0.554644-25.897588-2.815883-38.953044-2.047914a60.157493 60.157493 0 0 0-18.943211 3.967834 37.971751 37.971751 0 0 0-15.700679 11.391526m5.247781-142.074081a26.70822 26.70822 0 0 0-16.383317 7.253031 36.094496 36.094496 0 0 0-9.51427 15.359361c-3.071872 11.775509-3.83984 24.190992-2.133245 36.30782 0.213324 11.007541 2.133244 22.057748 5.75976 32.510645 2.047915 5.119787 4.991792 9.855589 8.874297 13.823424a28.116162 28.116162 0 0 0 29.438774 7.722345 32.979959 32.979959 0 0 0 13.012791-7.935669c5.333111-5.461106 9.215616-12.159493 11.092871-19.412524 1.962585-7.253031 2.858548-14.890046 2.645223-22.484397 0-9.42894-1.493271-18.857881-4.309154-27.945502a62.120078 62.120078 0 0 0-14.292737-24.318987 40.360985 40.360985 0 0 0-10.922212-8.148994 28.500146 28.500146 0 0 0-13.268781-2.730553m107.85684 0a55.464356 55.464356 0 0 0-21.460439 26.580226c-4.309154 14.079413-3.626516 29.054789 1.706595 42.792884 4.437148 14.420732 13.26878 27.04954 25.172285 36.137161 6.186409 4.266489 13.226116 7.039707 20.692471 7.935669a37.630432 37.630432 0 0 0 21.716428-3.75451 42.664889 42.664889 0 0 0 18.047248-19.625849c3.626516-8.404983 5.67443-17.407275 5.887755-26.452231a89.425607 89.425607 0 0 0-4.309154-34.217241 56.786967 56.786967 0 0 0-22.143077-29.396109 44.286155 44.286155 0 0 0-17.492605-6.570393 36.734469 36.734469 0 0 0-18.516561 2.047915 50.472564 50.472564 0 0 0-9.386276 5.119787" fill="#FFFFFF" p-id="6293"></path><path d="M547.707866 180.856464a21.332444 21.332444 0 0 0-10.111579 3.285197 26.96421 26.96421 0 0 0-7.722345 7.50902 38.825049 38.825049 0 0 0-6.143744 20.308487 42.110245 42.110245 0 0 0 2.133245 15.914004c1.706596 5.119787 4.906462 9.642265 9.002291 13.055456a25.172284 25.172284 0 0 0 30.676055 1.493271 27.774843 27.774843 0 0 0 8.618308-9.898254 37.161118 37.161118 0 0 0 3.83984-12.500813 38.739719 38.739719 0 0 0-3.626516-22.612391 31.486688 31.486688 0 0 0-16.809966-15.1887 24.404316 24.404316 0 0 0-9.855589-1.578601" fill="#020204" p-id="6294"></path><path d="M417.921273 152.142994a26.70822 26.70822 0 0 0-16.383317 7.253031 36.094496 36.094496 0 0 0-9.51427 15.35936c-3.071872 11.775509-3.83984 24.148327-2.133245 36.307821 0.213324 11.007541 2.133244 22.015083 5.75976 32.46798a41.299613 41.299613 0 0 0 8.874297 13.866089 28.116162 28.116162 0 0 0 29.438774 7.722345 32.979959 32.979959 0 0 0 13.012791-7.935669c5.333111-5.461106 9.215616-12.159493 11.092871-19.45519 1.962585-7.253031 2.858548-14.847381 2.645223-22.484396 0-9.386276-1.493271-18.815216-4.309154-27.902838a62.120078 62.120078 0 0 0-14.292737-24.318986 40.360985 40.360985 0 0 0-10.922212-8.148994 28.500146 28.500146 0 0 0-13.268781-2.730553" fill="#FFFFFF" p-id="6295"></path><path d="M403.244552 202.658223c-1.450606 7.59435-1.109287 15.572684 1.279946 22.95371a37.331778 37.331778 0 0 0 8.148994 13.055456c2.261239 2.474564 4.906462 4.650473 7.978334 6.101079a14.164743 14.164743 0 0 0 9.85559 1.279947 14.079413 14.079413 0 0 0 7.59435-5.119787 25.982917 25.982917 0 0 0 4.223824-8.276988 46.07808 46.07808 0 0 0-0.426649-27.13487 35.027874 35.027874 0 0 0-10.367568-16.809966 21.417774 21.417774 0 0 0-8.404983-4.437149 14.506062 14.506062 0 0 0-9.51427 0.767968 16.596642 16.596642 0 0 0-7.381026 7.381026 31.572018 31.572018 0 0 0-3.071872 10.111579" fill="#020204" p-id="6296"></path><path d="M388.823819 298.142244a7.85034 7.85034 0 0 0 1.151952 2.858548 12.543477 12.543477 0 0 0 3.83984 3.83984 81.489938 81.489938 0 0 1 24.745636 22.484396c6.826382 10.666222 15.35936 20.223157 25.001625 28.414816 7.381026 5.119787 15.999333 8.148994 25.001625 8.959627 10.452898 0.810633 20.991125-0.426649 31.102704-3.626516 9.300946-2.730553 18.260572-6.613058 26.665555-11.690179 14.420732-11.60485 29.865422-21.801758 46.24874-30.292071 3.83984-1.407941 7.67968-2.431899 11.34886-4.138495a17.791259 17.791259 0 0 0 8.831632-7.935669 38.654389 38.654389 0 0 0 2.133245-11.34886c0.597308-4.095829 1.962585-8.106329 2.645223-12.159494a21.588434 21.588434 0 0 0-0.895963-12.244823 16.724636 16.724636 0 0 0-7.167701-7.167701 24.916295 24.916295 0 0 0-9.855589-2.517229 151.972334 151.972334 0 0 0-20.479147 2.047915c-9.044956 0.810633-18.132578-0.341319-27.220199 0-11.263531 0.341319-22.484396 2.858548-33.833257 3.285196-12.970126 0.682638-25.769593-1.365276-38.739719-1.91992a75.858173 75.858173 0 0 0-16.809967 0.810633 36.819799 36.819799 0 0 0-15.530019 5.973085c-4.351819 3.413191-8.319653 7.082372-12.159494 10.922211a33.705262 33.705262 0 0 1-6.698387 4.693138 16.041998 16.041998 0 0 1-7.978334 1.791925 13.055456 13.055456 0 0 0-4.181159 0 6.997042 6.997042 0 0 0-2.133245 1.365277l-1.706595 2.047915a35.198533 35.198533 0 0 0-2.986543 5.333111" fill="#D99A03" p-id="6297"></path><path d="M417.323965 269.556768a245.74976 245.74976 0 0 0-13.396775 8.746303 17.663264 17.663264 0 0 0-5.75976 5.75976 12.287488 12.287488 0 0 0-1.023957 5.67443c0.08533 1.962585 0.08533 3.83984 0 5.802425-0.127995 1.279947-0.597308 2.602558-0.597309 3.967835a5.333111 5.333111 0 0 0 1.151952 3.626515 4.906462 4.906462 0 0 0 2.261239 1.279947l2.602558 0.554643a25.385609 25.385609 0 0 1 10.580893 6.143744c3.071872 2.730553 5.802425 5.887755 9.087621 8.532978 9.087621 6.826382 20.052498 10.324903 31.316029 10.196909 11.263531-0.213324 22.399067-1.83459 33.193283-4.693138 8.532978-1.791925 16.895296-4.053164 25.086955-6.911712 12.714137-4.735803 24.404316-11.69018 34.515895-20.649806 4.437148-4.309154 9.087621-8.191659 14.079414-11.69018 4.522478-2.858548 9.855589-4.778468 14.420732-7.509021 0.426649-0.213324 0.767968-0.554644 1.279947-0.767968 0.298654-0.341319 0.639973-0.682638 0.853298-1.151952a3.199867 3.199867 0 0 0 0-2.517228 5.75976 5.75976 0 0 0-1.023958-2.00525 15.487355 15.487355 0 0 0-1.91992-1.962585 31.998667 31.998667 0 0 0-17.919253-6.229073c-6.613058-0.426649-12.842132 0-19.1992-1.279947a131.919837 131.919837 0 0 1-17.36461-4.949127 125.562768 125.562768 0 0 0-18.516562-4.437149 119.2057 119.2057 0 0 0-44.371484 1.109287 140.666139 140.666139 0 0 0-39.337028 15.35936" fill="#604405" p-id="6298"></path><path d="M415.873359 254.112079a84.177826 84.177826 0 0 0-17.620599 15.999333 37.971751 37.971751 0 0 0-6.911712 11.69018 81.489938 81.489938 0 0 0-2.261239 10.452897 15.27403 15.27403 0 0 0-0.597309 3.967835c0 0.682638 0.127995 1.365276 0.341319 1.91992a4.266489 4.266489 0 0 0 1.023958 1.706596c0.810633 0.810633 1.83459 1.279947 2.986542 1.493271 0.981292 0.213324 2.133244 0.213324 3.285196 0.341319a32.083997 32.083997 0 0 1 13.738094 5.802425c4.095829 2.815883 7.935669 6.101079 12.116829 8.831632 9.556935 5.67443 20.479147 8.746302 31.572018 8.959626 11.135536 0.255989 22.185742-0.853298 32.937294-3.285196 8.618308-1.578601 17.151285-3.967835 25.428274-7.125036 12.372818-5.375776 23.977668-12.287488 34.55856-20.692472a153.76426 153.76426 0 0 0 18.601892-15.999333 16.767301 16.767301 0 0 1 5.333111-3.071872 18.900546 18.900546 0 0 1 9.42894-0.127995c2.261239 0.597308 4.693138 0.810633 7.039707 0.810633 1.279947 0 2.389234-0.213324 3.498521-0.554643a6.655723 6.655723 0 0 0 4.309153-6.357069 8.703637 8.703637 0 0 0-1.237281-4.437148 15.53002 15.53002 0 0 0-7.125037-5.802425 66.130578 66.130578 0 0 0-12.287488-3.626516 173.04879 173.04879 0 0 1-37.118453-13.524769c-5.887755-2.943877-11.476855-6.101079-17.36461-9.172952a102.139744 102.139744 0 0 0-18.388567-8.191658 72.402317 72.402317 0 0 0-44.41415 2.047914c-15.914004 5.546436-30.078747 15.231365-40.958293 28.030832" fill="#F5BD0C" p-id="6299"></path><path d="M489.768946 246.176409c0.810633 10.666222 4.906462 8.788967 7.253032 13.43944 2.431899 4.650473 3.797175 13.43944 6.058414 14.378068 2.389234 0.938628 5.67443-3.242532 5.973084-12.031499a38.227741 38.227741 0 0 0-6.570393-23.679013c-3.626516-6.954377-7.67968-7.423691-11.34886-0.938628a20.351152 20.351152 0 0 0-1.365277 8.831632z m-39.038373-5.546435c-3.071872-4.181159-8.106329 17.620599-6.613058 29.182784 0.469314 3.242532 1.83459 6.954377 2.730553 5.119786 0.938628-1.877255 2.645223-14.378068 4.09583-18.559226 1.151952-3.711845 0.895963-14.378068-0.213325-15.786009z" fill="#CD8907" p-id="6300"></path><path d="M937.408961 869.211783c-2.261239 5.887755-5.546436 11.34886-9.642264 16.212658-9.556935 10.239573-21.11912 18.431232-33.833257 24.105662-21.588434 9.983584-42.579559 21.11912-63.016041 33.278613a261.535769 261.535769 0 0 0-37.118454 29.950752c-9.471605 9.898254-19.583184 18.985876-30.249406 27.476189-11.092871 8.191659-23.935003 13.738094-37.545102 15.914003-16.724636 2.133244-33.619933-0.426649-48.979293-7.381025a58.024249 58.024249 0 0 1-27.262864-21.332445 64.423982 64.423982 0 0 1-7.67968-33.961251c0.639973-20.777801 3.157202-41.470272 7.466356-61.864089 2.986542-17.065956 5.93042-34.131911 7.722345-51.240532a532.031165 532.031165 0 0 0 1.151952-94.118745 73.383609 73.383609 0 0 1 0-15.786009 20.095163 20.095163 0 0 1 20.436481-18.772551c4.863797-0.08533 9.77026 0.341319 14.506063 1.279946 11.391525 1.365276 22.740386 3.285196 33.875921 5.887755 6.911712 1.83459 13.823424 4.309154 20.777801 6.271739 11.562185 3.413191 23.849673 4.394484 35.838507 3.285196a272.62864 272.62864 0 0 1 38.3984-6.015749c5.333111 0.213324 10.666222 1.109287 15.700679 2.730553a33.875922 33.875922 0 0 1 14.079414 7.807674c2.815883 3.071872 5.119787 6.613058 6.570393 10.452898 2.133244 5.802425 3.498521 11.818174 3.967834 17.919254 0.213324 5.461106 0.682638 10.922212 1.365277 16.383317 1.91992 8.746302 6.143744 16.895296 12.031498 23.721678 6.015749 6.570393 12.500812 12.714137 19.54052 18.175243 6.698388 5.887755 13.738094 11.34886 21.11912 16.340652 3.498521 2.389234 7.039707 4.565143 10.324903 7.167702 3.413191 2.474564 6.271739 5.67443 8.404983 9.300946a22.783051 22.783051 0 0 1 2.261239 16.340652" fill="#F5BD0C" p-id="6301"></path><path d="M937.408961 869.211783c-2.261239 5.887755-5.546436 11.34886-9.642264 16.212658-9.556935 10.239573-21.11912 18.431232-33.833257 24.105662-21.588434 9.983584-42.579559 21.11912-63.016041 33.278613a261.535769 261.535769 0 0 0-37.118454 29.950752c-9.471605 9.898254-19.583184 18.985876-30.249406 27.476189-11.092871 8.191659-23.935003 13.738094-37.545102 15.914003-16.724636 2.133244-33.619933-0.426649-48.979293-7.381025a58.024249 58.024249 0 0 1-27.262864-21.332445 64.423982 64.423982 0 0 1-7.67968-33.961251c0.639973-20.777801 3.157202-41.470272 7.466356-61.864089 2.986542-17.065956 5.93042-34.131911 7.722345-51.240532a532.031165 532.031165 0 0 0 1.151952-94.118745 73.383609 73.383609 0 0 1 0-15.786009 20.095163 20.095163 0 0 1 20.436481-18.772551c4.863797-0.08533 9.77026 0.341319 14.506063 1.279946 11.391525 1.365276 22.740386 3.285196 33.875921 5.887755 6.911712 1.83459 13.823424 4.309154 20.777801 6.271739 11.562185 3.413191 23.849673 4.394484 35.838507 3.285196a272.62864 272.62864 0 0 1 38.3984-6.015749c5.333111 0.213324 10.666222 1.109287 15.700679 2.730553a33.875922 33.875922 0 0 1 14.079414 7.807674c2.815883 3.071872 5.119787 6.613058 6.570393 10.452898 2.133244 5.802425 3.498521 11.818174 3.967834 17.919254 0.213324 5.461106 0.682638 10.922212 1.365277 16.383317 1.91992 8.746302 6.143744 16.895296 12.031498 23.721678 6.015749 6.570393 12.500812 12.714137 19.54052 18.175243 6.698388 5.887755 13.738094 11.34886 21.11912 16.340652 3.498521 2.389234 7.039707 4.565143 10.324903 7.167702 3.413191 2.474564 6.271739 5.67443 8.404983 9.300946a22.783051 22.783051 0 0 1 2.261239 16.340652M223.966688 694.925711a31.657348 31.657348 0 0 1 17.492605-1.621265 42.664889 42.664889 0 0 1 16.340652 6.954377c9.386276 7.125036 17.620599 15.999333 24.062998 25.897587 15.999333 22.015083 31.358693 44.499479 45.310112 67.879838 11.34886 18.985876 21.673764 38.48373 34.771884 56.317654 8.532978 11.60485 18.132578 22.356402 26.79355 33.961252 8.959627 11.34886 15.786009 24.318987 19.967168 38.05708 4.991792 18.260572 2.986542 37.673097-5.546435 54.611058a69.714429 69.714429 0 0 1-64.253323 38.3984 183.459023 183.459023 0 0 1-59.730844-18.85788c-39.678347-15.786009-82.684555-20.820466-123.557519-33.065289-12.628807-3.75451-24.87363-8.276988-37.587767-11.69018a109.734094 109.734094 0 0 1-16.724637-5.333111 28.756135 28.756135 0 0 1-13.055456-11.007541 25.12962 25.12962 0 0 1-3.285196-13.055457 38.739719 38.739719 0 0 1 2.602558-13.09812c3.071872-8.532978 8.106329-16.084663 11.391526-24.489647 4.991792-13.866089 6.911712-28.756135 5.67443-43.390192-0.682638-14.634057-3.327861-29.310779-4.09583-43.944835a71.12237 71.12237 0 0 1 0.682639-19.625849 29.396108 29.396108 0 0 1 24.87363-25.21495c5.973084-1.023957 12.031499-1.493271 18.047248-1.151952 5.973084 0.341319 12.159493 0.341319 18.175243 0a42.4089 42.4089 0 0 0 17.364609-4.863797 41.299613 41.299613 0 0 0 12.500813-11.818174c3.285196-4.778468 6.229074-9.642265 8.959627-14.762052a92.582809 92.582809 0 0 1 9.386275-14.420732 34.387901 34.387901 0 0 1 13.43944-10.666223" fill="#F5BD0C" p-id="6302"></path><path d="M223.966688 695.053706a31.657348 31.657348 0 0 1 17.492605-1.621266 42.664889 42.664889 0 0 1 16.340652 6.911712c9.386276 7.167701 17.620599 16.041998 24.062998 25.897588 15.999333 22.015083 31.358693 44.499479 45.310112 67.922503 11.34886 18.943211 21.673764 38.48373 34.771884 56.317654 8.532978 11.562185 18.132578 22.356402 26.79355 33.961251 8.959627 11.34886 15.786009 24.318987 19.967168 38.014416 4.991792 18.303237 2.986542 37.715762-5.546435 54.611058a69.714429 69.714429 0 0 1-64.253323 38.3984 183.459023 183.459023 0 0 1-59.730844-18.857881c-39.678347-15.786009-82.684555-20.777801-123.557519-33.022624-12.628807-3.75451-24.87363-8.319653-37.587767-11.690179a109.734094 109.734094 0 0 1-16.724637-5.375776 28.756135 28.756135 0 0 1-13.055456-11.007542A25.12962 25.12962 0 0 1 84.96448 922.457564a38.739719 38.739719 0 0 1 2.602558-13.055456c3.071872-8.532978 8.106329-16.127328 11.391526-24.532311 4.991792-13.823424 6.911712-28.71347 5.67443-43.347527-0.682638-14.676722-3.327861-29.182784-4.09583-43.944836a71.12237 71.12237 0 0 1 0.682639-19.625849 29.396108 29.396108 0 0 1 24.87363-25.257614c5.973084-1.023957 12.031499-1.450606 18.047248-1.109287 5.973084 0.341319 12.159493 0.341319 18.175243 0a42.4089 42.4089 0 0 0 17.364609-4.906462 41.299613 41.299613 0 0 0 12.500813-11.818175c3.285196-4.735803 6.229074-9.642265 8.959627-14.762051a92.582809 92.582809 0 0 1 9.386275-14.420733 33.406608 33.406608 0 0 1 13.43944-10.666222" fill="#F5BD0C" p-id="6303"></path><path d="M232.71299 704.567976a26.750885 26.750885 0 0 1 15.786009-1.023957c5.205116 1.279947 10.111579 3.626516 14.292738 7.039707 8.063664 7.039707 14.890046 15.44469 20.009833 24.87363 13.6101 22.015083 26.87888 44.286155 39.251698 66.983876 8.959627 17.36461 19.11387 34.174576 30.206741 50.173909 7.722345 10.452898 16.596642 20.009833 24.532312 30.206741 8.319653 10.111579 14.506062 21.588434 18.388567 33.961252 4.565143 16.212658 2.645223 33.619933-5.119787 48.723303-5.631765 10.666222-14.164743 19.625849-24.617641 25.641598a62.504062 62.504062 0 0 1-34.515895 8.532978 197.538436 197.538436 0 0 1-54.739053-16.937961c-34.515895-12.586142-72.103662-14.164743-107.51552-24.062997-12.714137-3.413191-25.086955-8.063664-37.971751-11.220866a123.642848 123.642848 0 0 1-16.767301-4.906462 27.817508 27.817508 0 0 1-13.396776-10.794217 24.062997 24.062997 0 0 1-2.858547-12.458148 41.128953 41.128953 0 0 1 2.730553-12.714136c3.071872-8.106329 7.935669-15.44469 11.007541-23.508354 4.309154-12.500812 5.802425-25.684263 4.437149-38.825049-0.895963-13.098121-3.285196-26.025582-3.967835-39.209033a69.543769 69.543769 0 0 1 0.810633-17.492605 30.036082 30.036082 0 0 1 7.807675-15.444689 31.230699 31.230699 0 0 1 17.065955-7.93567c6.314404-0.810633 12.714137-0.810633 18.943211 0 6.357068 0.810633 12.714137 1.023957 19.071205 0.895963 12.500812 0 23.849673-7.253031 29.182784-18.601892 2.602558-5.119787 4.906462-10.452898 6.698388-15.786009a78.076747 78.076747 0 0 1 7.59435-15.444689 29.353444 29.353444 0 0 1 13.055456-11.007542" fill="#F5BD0C" p-id="6304"></path></svg>