<?xml version="1.0" standalone="no"?><!DOCTYPE svg PUBLIC "-//W3C//DTD SVG 1.1//EN" "http://www.w3.org/Graphics/SVG/1.1/DTD/svg11.dtd"><svg t="1698984102404" class="icon" viewBox="0 0 1024 1024" version="1.1" xmlns="http://www.w3.org/2000/svg" p-id="7396" xmlns:xlink="http://www.w3.org/1999/xlink" width="48" height="48"><path d="M0 512a512 512 0 1 0 1024 0 512 512 0 1 0-1024 0Z" fill="#F2ECFF" p-id="7397"></path><path d="M238.933333 665.6a273.066667 153.6 0 1 0 546.133334 0 273.066667 153.6 0 1 0-546.133334 0Z" fill="#DBBBFF" p-id="7398"></path><path d="M341.333333 375.466667a170.666667 170.666667 0 1 0 341.333334 0 170.666667 170.666667 0 1 0-341.333334 0Z" fill="#BC86F9" p-id="7399"></path><path d="M460.8 409.6c-9.4208 0-17.3056 7.645867-14.984533 16.7936a68.266667 68.266667 0 0 0 132.369066 0c2.321067-9.147733-5.563733-16.7936-14.984533-16.7936h-102.4z" fill="#FFFFFF" p-id="7400"></path></svg>